# xmcd
#
# Track frame offsets:
#	150
#	22162
#	39739
#	64223
#	88384
#	118231
#	157046
#	184115
#	203401
#	218423
#	244347
#
# Disc length: 3817 seconds
#
# Revision: 1
# Processed by: cddbd v1.5.2PL0 Copyright (c) Steve Scherf et al.
# Submitted via: audiograbber 1.83.01
#
DISCID=a10ee70b
DTITLE=Duke Robillard - Duke Robillard's World Full Of Blues [CD 2)
DYEAR=2007
DGENRE=Blues
TTITLE0=Gonna' Get You Told
TTITLE1=Monkey Arms
TTITLE2=Who Do You Love
TTITLE3=Low Side Of The Road
TTITLE4=Too Much Stuff
TTITLE5=Blues Nightmare
TTITLE6=Bounce For Billy
TTITLE7=Bright Lights, Big City
TTITLE8=Steppin' Out
TTITLE9=Anything It Takes
TTITLE10=Stetchin'
EXTD=
EXTT0=
EXTT1=
EXTT2=
EXTT3=
EXTT4=
EXTT5=
EXTT6=
EXTT7=
EXTT8=
EXTT9=
EXTT10=
PLAYORDER=
